# xmcd CD database file
#
# Track frame offsets:
#	150
#	24077
#	44290
#	75845
#	106482
#	127807
#	155980
#	177520
#	193455
#
# Disc length: 2878 seconds
#
# Revision: 0
# Processed by: cddbd v1.5PL3 Copyright (c) Steve Scherf et al.
# Submitted via: CDex 1.50
#
DISCID=6e0b3c09
DTITLE=Jazz in the Cafes - Jazz in the Cafes
DYEAR=2000
DGENRE=Jazz
TTITLE0=Oceana
TTITLE1=Funky Turkey
TTITLE2=Super Groove
TTITLE3=Spanish Night
TTITLE4=Gosman's Gazebo
TTITLE5=Gaddabout
TTITLE6=Sails Of Your Soul
TTITLE7=Acoustic Fusion
TTITLE8=Some-Other Sunset
EXTD=YEAR: 2000
EXTT0=
EXTT1=
EXTT2=
EXTT3=
EXTT4=
EXTT5=
EXTT6=
EXTT7=
EXTT8=
PLAYORDER=
